<svg width="24" height="24" viewBox="0 0 24 24" version="1.1" xmlns="http://www.w3.org/2000/svg" xmlns:xlink="http://www.w3.org/1999/xlink">
    <g stroke="none" stroke-width="1" fill="none" fill-rule="evenodd">
        <g id="ic_fluent_view_desktop_24_regular" fill="#43B9B5" fill-rule="nonzero">
            <path d="M19.75,3 C20.940864,3 21.9156449,3.92516159 21.9948092,5.09595119 L22,5.25 L22,15.7522754 C22,16.9431394 21.0748384,17.9179203 19.9040488,17.9970846 L19.75,18.0022754 L15.500168,18.002 L15.500168,20.5 L17.251168,20.5004398 C17.6653816,20.5004398 18.001168,20.8362262 18.001168,21.2504398 C18.001168,21.6301356 17.7190141,21.9439308 17.3529386,21.9935932 L17.251168,22.0004398 L6.751168,22.0004398 C6.33695444,22.0004398 6.001168,21.6646534 6.001168,21.2504398 C6.001168,20.870744 6.28332188,20.5569488 6.64939744,20.5072864 L6.751168,20.5004398 L8.500168,20.5 L8.500168,18.002 L4.251168,18.0022754 C3.06030401,18.0022754 2.08552308,17.0771138 2.00635881,15.9063242 L2.001168,15.7522754 L2.001168,5.25 C2.001168,4.05913601 2.92632959,3.08435508 4.09711919,3.00519081 L4.251168,3 L19.75,3 Z M13.999168,18.002 L9.999168,18.002 L10.000168,20.5004398 L14.000168,20.5004398 L13.999168,18.002 Z M19.75,4.5 L4.251168,4.5 C3.87147223,4.5 3.55767704,4.78215388 3.50801462,5.14822944 L3.501168,5.25 L3.501168,15.7522754 C3.501168,16.1319712 3.78332188,16.4457664 4.14939744,16.4954288 L4.251168,16.5022754 L19.75,16.5022754 C20.1296958,16.5022754 20.443491,16.2201215">
            </path>
        </g>
    </g>
</svg>