<svg width="34" height="34" viewBox="0 0 34 34" fill="none" xmlns="http://www.w3.org/2000/svg">
<path d="M25.0139 23.5973C23.6869 24.9241 20.9123 27.6988 19.0029 29.6082C17.8963 30.7147 16.1042 30.7153 14.9977 29.6088C13.1216 27.7327 10.4006 25.0117 8.98613 23.5973C4.56018 19.1713 4.56018 11.9954 8.98613 7.56946C13.4121 3.14351 20.588 3.14351 25.0139 7.56946C29.4397 11.9954 29.4397 19.1713 25.0139 23.5973Z" stroke="white" stroke-width="2" stroke-linecap="round" stroke-linejoin="round"/>
<path d="M21.25 15.5835C21.25 17.9308 19.3473 19.8335 17 19.8335C14.6527 19.8335 12.75 17.9308 12.75 15.5835C12.75 13.2363 14.6527 11.3335 17 11.3335C19.3473 11.3335 21.25 13.2363 21.25 15.5835Z" stroke="white" stroke-width="2" stroke-linecap="round" stroke-linejoin="round"/>
</svg>
