<svg width="35" height="35" viewBox="0 0 35 35" fill="none" xmlns="http://www.w3.org/2000/svg">
<path d="M18.9583 30.625H13.125V13.125H18.9583V16.0417C20.2018 14.4597 22.0874 13.5167 24.099 13.4706C27.7165 13.4907 30.6355 16.4345 30.625 20.0521V30.625H24.7917V20.7812C24.5584 19.1517 23.1609 17.9427 21.5148 17.9462C20.7948 17.969 20.1151 18.2843 19.6327 18.8192C19.1503 19.3542 18.9068 20.0627 18.9583 20.7812V30.625ZM10.2083 30.625H4.375V13.125H10.2083V30.625ZM7.29167 10.2083C5.68084 10.2083 4.375 8.9025 4.375 7.29167C4.375 5.68084 5.68084 4.375 7.29167 4.375C8.9025 4.375 10.2083 5.68084 10.2083 7.29167C10.2083 8.06521 9.90104 8.80708 9.35406 9.35406C8.80708 9.90104 8.06521 10.2083 7.29167 10.2083Z" fill="white"/>
</svg>
