<svg width="35" height="35" viewBox="0 0 20 20" fill="none" xmlns="http://www.w3.org/2000/svg">
<path fill-rule="evenodd" clip-rule="evenodd" d="M14.2305 11.8609C13.9976 11.7445 12.8562 11.1836 12.6437 11.1055C12.4312 11.0281 12.2765 10.9899 12.1211 11.2227C11.9664 11.4539 11.5219 11.9774 11.3867 12.132C11.2508 12.2875 11.1156 12.3063 10.8836 12.1906C10.6515 12.0734 9.90311 11.8289 9.01639 11.0383C8.32655 10.4227 7.86015 9.66252 7.72499 9.4297C7.58983 9.19767 7.71015 9.07189 7.82655 8.95627C7.93124 8.85236 8.05858 8.68517 8.17499 8.55002C8.2914 8.41408 8.32968 8.3172 8.40702 8.16174C8.48515 8.00705 8.44608 7.87189 8.38749 7.75549C8.32968 7.63908 7.86562 6.49611 7.67187 6.03127C7.48358 5.57893 7.29218 5.64065 7.14999 5.63283C7.01405 5.62659 6.85937 5.62502 6.70468 5.62502C6.54999 5.62502 6.29843 5.68283 6.08593 5.91565C5.87265 6.14768 5.27343 6.7094 5.27343 7.85236C5.27343 8.99455 6.10468 10.0985 6.22109 10.2539C6.33749 10.4086 7.8578 12.7539 10.1867 13.7594C10.7414 13.9984 11.1734 14.1414 11.5101 14.2477C12.0664 14.425 12.5726 14.4 12.9726 14.3398C13.418 14.2734 14.3461 13.7781 14.5398 13.2359C14.7328 12.6938 14.7328 12.2289 14.675 12.132C14.6172 12.0352 14.4625 11.9774 14.2297 11.8609H14.2305ZM9.99452 17.6445H9.99139C8.60814 17.6448 7.25028 17.2729 6.06015 16.568L5.7789 16.4008L2.85547 17.168L3.63593 14.318L3.45234 14.0258C2.67901 12.7948 2.26976 11.3702 2.27187 9.91642C2.27344 5.65862 5.73749 2.19456 9.99764 2.19456C12.0601 2.19456 13.9992 2.99925 15.457 4.45862C16.1761 5.1747 16.746 6.02625 17.1338 6.964C17.5216 7.90176 17.7196 8.90711 17.7164 9.92189C17.7148 14.1797 14.2508 17.6445 9.99452 17.6445ZM16.5664 3.35003C15.7056 2.48356 14.6814 1.79654 13.5532 1.32878C12.4249 0.861019 11.2151 0.621815 9.99374 0.625032C4.87343 0.625032 0.704687 4.79299 0.703125 9.91564C0.702344 11.5531 1.12969 13.1516 1.94297 14.5602L0.625 19.375L5.54999 18.0828C6.91239 18.8251 8.43912 19.214 9.99061 19.2141H9.99452C15.1148 19.2141 19.2836 15.0461 19.2851 9.92267C19.2889 8.70179 19.0506 7.49228 18.5839 6.36411C18.1172 5.23593 17.4315 4.21149 16.5664 3.35003Z" fill="#FFF"/>
</svg>